<svg xmlns="http://www.w3.org/2000/svg" aria-hidden="true" viewBox="0 0 16 16"><path fill="#fff" d="m13.03 7.03 2.53-2.53-2.53-2.53-1.06 1.06.72.72h-.446a4.75 4.75 0 0 0-3.48 1.518L7.25 6.898l-1.514-1.63a4.75 4.75 0 0 0-3.48-1.518H1v1.5h1.256a3.25 3.25 0 0 1 2.381 1.039L6.227 8l-1.59 1.711a3.25 3.25 0 0 1-2.381 1.039H1v1.5h1.256a4.75 4.75 0 0 0 3.48-1.518l1.514-1.63 1.514 1.63a4.75 4.75 0 0 0 3.48 1.518h.445l-.72.72 1.061 1.06 2.53-2.53-2.53-2.53-1.06 1.06.72.72h-.446a3.25 3.25 0 0 1-2.381-1.039L8.273 8l1.59-1.711a3.25 3.25 0 0 1 2.381-1.039h.445l-.72.72 1.061 1.06Z"/></svg>